<?xml version="1.0"?>
<svg width="100" height="100" xmlns="http://www.w3.org/2000/svg" xmlns:svg="http://www.w3.org/2000/svg" enable-background="new 0 0 100 100">
 <g class="layer">
  <title>Layer 1</title>
  <g id="svg_1">
   <path d="m22.1,35.01c0,-0.46 -0.38,-0.84 -0.84,-0.84l-17.93,0c-0.46,0 -0.83,0.38 -0.83,0.84l0,29.98c0,0.46 0.37,0.84 0.83,0.84l17.93,0c0.46,0 0.84,-0.38 0.84,-0.84c0.01,-8.62 -0.01,-21.26 0,-29.98zm-0.84,34.32l-17.93,0c-0.46,0 -0.83,0.38 -0.83,0.84l0,18.07c0,0.46 0.37,0.84 0.83,0.84l17.93,0c0.46,0 0.84,-0.38 0.84,-0.84l0,-18.07c0,-0.47 -0.38,-0.84 -0.84,-0.84zm38.32,-14.35c-0.55,-0.47 -1.38,-0.08 -1.38,0.64l0,12.87c0,0.46 -0.37,0.84 -0.83,0.84l-30.97,0c-0.46,0 -0.83,0.38 -0.83,0.84l0,18.07c0,0.46 0.37,0.84 0.83,0.84c12.1,0 38.1,0 50,0c0.46,0 0.83,-0.38 0.83,-0.84l0,-17.67c0,-0.25 -0.1,-0.48 -0.29,-0.64l-17.36,-14.95zm36.98,-34.83c-0.22,-0.1 -1,-0.4 -1.75,0.22l-13.8,11.4c-0.19,0.16 -0.31,0.4 -0.31,0.65l0,35.73c0,0.25 0.12,0.49 0.31,0.65l13.87,11.46c0.99,0.83 2.68,-0.02 2.62,-1.34c0,0 0,-57.27 0,-57.27c0,-0.97 -0.72,-1.39 -0.94,-1.5zm-90.77,10.52l15.47,0c0.46,0 0.84,-0.37 0.84,-0.84l0,-15.51c0,-0.75 -0.9,-1.12 -1.42,-0.6l-15.48,15.51c-0.52,0.53 -0.15,1.44 0.59,1.44zm70.08,5.4l-15.95,13.31c-0.4,0.33 -0.4,0.95 -0.01,1.29l15.95,13.72c0.54,0.47 1.37,0.08 1.37,-0.64l0,-27.03c0,-0.71 -0.82,-1.1 -1.36,-0.65zm0.53,-25.15l-50,0c-0.46,0 -0.83,0.38 -0.83,0.84l0,18.07c0,0.46 0.37,0.84 0.83,0.84l30.96,0c0.47,0 0.84,0.38 0.84,0.84l0,12.98c0,0.71 0.82,1.1 1.37,0.65l17.36,-14.5c0.19,-0.16 0.3,-0.4 0.3,-0.65l0,-18.23c0,-0.46 -0.37,-0.84 -0.83,-0.84z" fill="#deddda" id="svg_2"/>
  </g>
 </g>
</svg>